<svg xmlns="http://www.w3.org/2000/svg" xmlns:xlink="http://www.w3.org/1999/xlink" width="500" zoomAndPan="magnify" viewBox="0 0 375 374.999991" height="500" preserveAspectRatio="xMidYMid meet" version="1.0"><defs><g/><clipPath id="3453f8b434"><rect x="0" width="301" y="0" height="271"/></clipPath></defs><rect x="-37.5" width="450" fill="#ffffff" y="-37.499999" height="449.999989" fill-opacity="1"/><rect x="-37.5" width="450" fill="#eeeeee" y="-37.499999" height="449.999989" fill-opacity="1"/><g transform="matrix(1, 0, 0, 1, 63, 51)"><g clip-path="url(#3453f8b434)"><g fill="#000000" fill-opacity="1"><g transform="translate(26.344948, 189.432642)"><g><path d="M 197.8125 22.78125 C 205.664062 22.78125 212.941406 23.40625 219.640625 24.65625 C 226.347656 25.90625 232.691406 27.828125 238.671875 30.421875 C 244.660156 33.015625 250.46875 36.320312 256.09375 40.34375 C 261.726562 44.363281 267.316406 49.140625 272.859375 54.671875 L 271.78125 56.015625 C 266.601562 51.546875 260.707031 47.789062 254.09375 44.75 C 247.476562 41.71875 240.597656 39.351562 233.453125 37.65625 C 226.304688 35.957031 219.113281 34.75 211.875 34.03125 C 204.644531 33.320312 197.722656 32.96875 191.109375 32.96875 C 180.921875 32.96875 170.910156 33.59375 161.078125 34.84375 C 151.253906 36.09375 141.335938 37.519531 131.328125 39.125 L 114.453125 41.8125 C 104.617188 43.414062 94.742188 44.84375 84.828125 46.09375 C 74.910156 47.351562 64.859375 47.984375 54.671875 47.984375 C 45.203125 47.984375 35.910156 46.640625 26.796875 43.953125 C 17.691406 41.273438 9.5625 37.300781 2.40625 32.03125 C -4.738281 26.757812 -10.5 20.144531 -14.875 12.1875 C -19.25 4.238281 -21.4375 -5.003906 -21.4375 -15.546875 C -21.4375 -21.972656 -20.539062 -28.269531 -18.75 -34.4375 C -16.96875 -40.601562 -14.378906 -46.273438 -10.984375 -51.453125 C -7.585938 -56.640625 -3.4375 -61.285156 1.46875 -65.390625 C 6.382812 -69.503906 11.878906 -72.722656 17.953125 -75.046875 L 17.953125 -114.71875 C 17.953125 -118.289062 17.28125 -121.6875 15.9375 -124.90625 C 14.601562 -128.125 12.0625 -130.265625 8.3125 -131.328125 L 43.6875 -131.328125 C 39.757812 -130.265625 37.171875 -128.125 35.921875 -124.90625 C 34.671875 -121.6875 34.046875 -118.289062 34.046875 -114.71875 L 34.046875 -79.0625 C 36.003906 -79.601562 37.96875 -79.960938 39.9375 -80.140625 C 41.90625 -80.316406 43.867188 -80.40625 45.828125 -80.40625 C 55.484375 -80.40625 64.597656 -78.84375 73.171875 -75.71875 C 81.742188 -72.59375 89.425781 -67.632812 96.21875 -60.84375 L 96.21875 -114.984375 C 96.21875 -118.554688 95.546875 -121.90625 94.203125 -125.03125 C 92.867188 -128.164062 90.328125 -130.265625 86.578125 -131.328125 L 121.953125 -131.328125 C 118.023438 -130.265625 115.4375 -128.164062 114.1875 -125.03125 C 112.9375 -121.90625 112.3125 -118.554688 112.3125 -114.984375 L 112.3125 -16.625 C 112.3125 -13.039062 113.023438 -9.640625 114.453125 -6.421875 C 115.878906 -3.210938 118.378906 -1.070312 121.953125 0 L 86.578125 0 C 90.328125 -1.070312 92.867188 -3.257812 94.203125 -6.5625 C 95.546875 -9.875 96.21875 -13.316406 96.21875 -16.890625 L 96.21875 -57.890625 C 90.144531 -63.785156 83.265625 -68.472656 75.578125 -71.953125 C 67.898438 -75.441406 59.769531 -77.1875 51.1875 -77.1875 C 48.15625 -77.1875 45.253906 -77.140625 42.484375 -77.046875 C 39.710938 -76.960938 36.898438 -76.566406 34.046875 -75.859375 L 34.046875 -16.625 C 34.046875 -13.039062 34.710938 -9.640625 36.046875 -6.421875 C 37.390625 -3.210938 39.9375 -1.070312 43.6875 0 L 8.3125 0 C 12.0625 -1.070312 14.601562 -3.257812 15.9375 -6.5625 C 17.28125 -9.875 17.953125 -13.316406 17.953125 -16.890625 L 17.953125 -70.5 C 6.703125 -64.78125 -1.242188 -56.644531 -5.890625 -46.09375 C -10.535156 -35.550781 -12.859375 -24.296875 -12.859375 -12.328125 C -12.859375 -2.503906 -10.847656 6.066406 -6.828125 13.390625 C -2.804688 20.722656 2.460938 26.800781 8.984375 31.625 C 15.503906 36.445312 23.003906 40.019531 31.484375 42.34375 C 39.972656 44.664062 48.597656 45.828125 57.359375 45.828125 C 68.078125 45.828125 78.484375 44.890625 88.578125 43.015625 C 98.679688 41.140625 108.820312 38.953125 119 36.453125 L 136.15625 32.15625 C 146.34375 29.65625 156.484375 27.46875 166.578125 25.59375 C 176.671875 23.71875 187.082031 22.78125 197.8125 22.78125 Z M 197.8125 22.78125 "/></g></g></g></g></g><g fill="#000000" fill-opacity="1"><g transform="translate(127.615177, 265.580227)"><g><path d="M 1.4375 -12.921875 L 3.046875 -12.921875 L 3.046875 0 L 1.4375 0 Z M 1.4375 -12.921875 "/></g></g></g><g fill="#000000" fill-opacity="1"><g transform="translate(135.577254, 265.580227)"><g><path d="M 6.59375 0.125 C 5.320312 0.125 4.265625 -0.195312 3.421875 -0.84375 C 2.585938 -1.488281 1.972656 -2.316406 1.578125 -3.328125 C 1.179688 -4.335938 0.984375 -5.398438 0.984375 -6.515625 C 0.984375 -7.648438 1.1875 -8.722656 1.59375 -9.734375 C 2 -10.753906 2.628906 -11.585938 3.484375 -12.234375 C 4.347656 -12.878906 5.425781 -13.203125 6.71875 -13.203125 C 8.164062 -13.203125 9.332031 -12.8125 10.21875 -12.03125 C 11.113281 -11.25 11.734375 -10.269531 12.078125 -9.09375 L 10.390625 -9.09375 C 10.148438 -9.925781 9.722656 -10.578125 9.109375 -11.046875 C 8.492188 -11.515625 7.695312 -11.75 6.71875 -11.75 C 5.425781 -11.75 4.414062 -11.28125 3.6875 -10.34375 C 2.96875 -9.40625 2.609375 -8.125 2.609375 -6.5 C 2.609375 -4.851562 2.976562 -3.5625 3.71875 -2.625 C 4.46875 -1.6875 5.492188 -1.21875 6.796875 -1.21875 C 7.566406 -1.21875 8.234375 -1.378906 8.796875 -1.703125 C 9.359375 -2.035156 9.789062 -2.484375 10.09375 -3.046875 C 10.394531 -3.609375 10.550781 -4.25 10.5625 -4.96875 L 10.578125 -5.484375 L 6.96875 -5.484375 L 6.96875 -6.6875 L 12.078125 -6.6875 L 12.078125 0 L 10.796875 0 L 10.796875 -2.140625 L 10.65625 -2.140625 C 10.582031 -1.953125 10.414062 -1.6875 10.15625 -1.34375 C 9.894531 -1.007812 9.46875 -0.679688 8.875 -0.359375 C 8.28125 -0.0351562 7.519531 0.125 6.59375 0.125 Z M 6.59375 0.125 "/></g></g></g><g fill="#000000" fill-opacity="1"><g transform="translate(152.275076, 265.580227)"><g><path d="M 1.390625 -12.921875 L 3.171875 -12.921875 L 10.109375 -2.546875 L 10.171875 -2.546875 L 10.171875 -12.921875 L 11.75 -12.921875 L 11.75 0 L 9.9375 0 L 3.03125 -10.234375 L 2.953125 -10.234375 L 2.953125 0 L 1.390625 0 Z M 1.390625 -12.921875 "/></g></g></g><g fill="#000000" fill-opacity="1"><g transform="translate(168.880555, 265.580227)"><g><path d="M 8.921875 -3.765625 L 3.65625 -3.765625 L 2.296875 0 L 0.671875 0 L 5.515625 -12.921875 L 7.03125 -12.921875 L 11.9375 0 L 10.3125 0 Z M 8.453125 -5.046875 L 6.296875 -10.890625 L 6.21875 -10.890625 L 4.125 -5.046875 Z M 8.453125 -5.046875 "/></g></g></g></svg>